<?xml version="1.0" encoding="UTF-8" standalone="no"?>
<!-- Created with Inkscape (http://www.inkscape.org/) -->

<svg
   width="210mm"
   height="297mm"
   viewBox="0 0 210 297"
   version="1.1"
   id="svg1"
   inkscape:export-filename="thoughtBubble.svg"
   inkscape:export-xdpi="96"
   inkscape:export-ydpi="96"
   xmlns:inkscape="http://www.inkscape.org/namespaces/inkscape"
   xmlns:sodipodi="http://sodipodi.sourceforge.net/DTD/sodipodi-0.dtd"
   xmlns="http://www.w3.org/2000/svg"
   xmlns:svg="http://www.w3.org/2000/svg">
  <sodipodi:namedview
     id="namedview1"
     pagecolor="#505050"
     bordercolor="#eeeeee"
     borderopacity="1"
     inkscape:showpageshadow="0"
     inkscape:pageopacity="0"
     inkscape:pagecheckerboard="0"
     inkscape:deskcolor="#505050"
     inkscape:document-units="mm" />
  <defs
     id="defs1" />
  <g
     inkscape:label="Layer 1"
     inkscape:groupmode="layer"
     id="layer1">
    <g
       id="g24"
       transform="matrix(1.6050795,0,0,1.3644552,-282.39557,-83.038502)">
		<path
   style="fill:#201600"
   d="m 291.486,203.693 c 0,4.602 -4.264,8.333 -9.523,8.333 -5.259,0 -9.523,-3.73 -9.523,-8.333 0,-4.603 4.265,-8.334 9.523,-8.334 5.26,0.001 9.523,3.731 9.523,8.334 z"
   id="path19" />

		<path
   style="fill:#ffffff"
   d="m 281.137,209.322 c -4.114,0 -7.46,-2.817 -7.46,-6.28 0,-3.463 3.346,-6.28 7.46,-6.28 4.113,0 7.461,2.817 7.461,6.28 0,3.463 -3.348,6.28 -7.461,6.28 z"
   id="path20" />

		<path
   style="fill:#201600"
   d="m 301.44,212.026 c 0,1.933 -1.828,3.5 -4.084,3.5 -2.256,0 -4.084,-1.567 -4.084,-3.5 0,-1.933 1.828,-3.5 4.084,-3.5 2.256,0 4.084,1.567 4.084,3.5 z"
   id="path21" />

		<path
   style="fill:#ffffff"
   d="m 296.875,213.197 c -1.273,0 -2.349,-0.774 -2.349,-1.69 0,-0.915 1.075,-1.689 2.349,-1.689 1.272,0 2.348,0.774 2.348,1.689 0,0.916 -1.076,1.69 -2.348,1.69 z"
   id="path22" />

		<path
   style="fill:#201600"
   d="m 286.273,172.026 c 0,-8.12 -4.303,-15.234 -10.751,-19.19 0.782,-2.025 1.228,-4.217 1.228,-6.518 0,-10.01 -8.115,-18.125 -18.125,-18.125 -4.689,0 -8.948,1.796 -12.166,4.717 -2.496,-5.341 -7.901,-9.05 -14.186,-9.05 -5.586,0 -10.477,2.933 -13.251,7.334 -1.732,-1.843 -4.186,-3.001 -6.916,-3.001 -5.194,0 -9.408,4.17 -9.492,9.344 -1.484,-0.433 -3.05,-0.677 -4.675,-0.677 -9.204,0 -16.667,7.462 -16.667,16.667 0,5.89 3.063,11.054 7.675,14.019 -4.631,3.148 -7.675,8.458 -7.675,14.481 0,9.665 7.835,17.5 17.5,17.5 4.654,0 8.872,-1.829 12.006,-4.792 0.89,5.087 5.318,8.958 10.66,8.958 3.89,0 7.286,-2.057 9.193,-5.136 2.227,6.839 8.86,11.803 16.7,11.803 9.319,0 16.914,-7.017 17.448,-15.858 11.961,-0.528 21.494,-10.387 21.494,-22.476 z"
   id="path23" />

		<path
   style="fill:#ffffff"
   d="m 246.086,206.21 c -6.644,0 -12.437,-4.079 -14.413,-10.15 l -1.299,-3.99 -2.21,3.567 c -1.583,2.555 -4.311,4.08 -7.298,4.08 -4.183,0 -7.743,-2.992 -8.463,-7.112 l -0.624,-3.568 -2.633,2.488 c -2.82,2.667 -6.498,4.134 -10.355,4.134 -8.324,0 -15.096,-6.772 -15.096,-15.096 0,-5.004 2.476,-9.674 6.623,-12.493 l 2.436,-1.657 -2.478,-1.593 c -4.121,-2.648 -6.58,-7.14 -6.58,-12.014 0,-7.876 6.408,-14.285 14.284,-14.285 1.337,0 2.686,0.195 4.007,0.581 l 2.452,0.716 0.042,-2.554 c 0.064,-3.961 3.338,-7.184 7.297,-7.184 2.028,0 3.917,0.82 5.316,2.309 l 1.725,1.835 1.342,-2.13 c 2.461,-3.904 6.669,-6.234 11.257,-6.234 5.137,0 9.868,3.019 12.051,7.691 l 1.118,2.393 1.956,-1.775 c 2.905,-2.637 6.647,-4.089 10.54,-4.089 8.66,0 15.705,7.045 15.705,15.705 0,1.917 -0.359,3.817 -1.065,5.646 l -0.584,1.513 1.382,0.849 c 5.975,3.666 9.542,10.032 9.542,17.03 0,10.711 -8.377,19.471 -19.069,19.943 l -1.753,0.077 -0.106,1.751 c -0.46,7.635 -7.072,13.616 -15.049,13.616 z"
   id="path24" />

	</g>
  </g>
</svg>
